<?xml version="1.0" encoding="UTF-8" standalone="no"?>
<!-- Created with Inkscape (http://www.inkscape.org/) -->

<svg
   xmlns:dc="http://purl.org/dc/elements/1.1/"
   xmlns:cc="http://creativecommons.org/ns#"
   xmlns:rdf="http://www.w3.org/1999/02/22-rdf-syntax-ns#"
   xmlns:svg="http://www.w3.org/2000/svg"
   xmlns="http://www.w3.org/2000/svg"
   xmlns:sodipodi="http://sodipodi.sourceforge.net/DTD/sodipodi-0.dtd"
   xmlns:inkscape="http://www.inkscape.org/namespaces/inkscape"
   version="1.1"
   id="svg4518"
   width="220"
   height="220"
   viewBox="0 0 220.00001 220.00001"
   sodipodi:docname="triplej-drum.svg"
   inkscape:version="0.92.4 (5da689c313, 2019-01-14)">
  <metadata
     id="metadata4524">
    <rdf:RDF>
      <cc:Work
         rdf:about="">
        <dc:format>image/svg+xml</dc:format>
        <dc:type
           rdf:resource="http://purl.org/dc/dcmitype/StillImage" />
        <dc:title />
      </cc:Work>
    </rdf:RDF>
  </metadata>
  <defs
     id="defs4522" />
  <sodipodi:namedview
     pagecolor="#ffffff"
     bordercolor="#666666"
     borderopacity="1"
     objecttolerance="10"
     gridtolerance="10"
     guidetolerance="10"
     inkscape:pageopacity="0"
     inkscape:pageshadow="2"
     inkscape:window-width="1920"
     inkscape:window-height="1017"
     id="namedview4520"
     showgrid="false"
     inkscape:zoom="2.5843496"
     inkscape:cx="-75.551974"
     inkscape:cy="87.668064"
     inkscape:window-x="1912"
     inkscape:window-y="-8"
     inkscape:window-maximized="1"
     inkscape:current-layer="svg4518"
     fit-margin-top="10"
     fit-margin-right="10"
     fit-margin-bottom="10"
     fit-margin-left="10" />
  <path
     id="path4888"
     style="fill:#ffffff;fill-opacity:1;stroke-width:2.32383537"
     d="M 97.091586,61.875558 C 95.95893,59.046947 90.660625,47.021066 85.317573,35.151378 78.895557,20.884745 76.397016,12.801864 77.945813,11.303423 c 1.288582,-1.24669 2.954576,-1.6748896 3.702207,-0.95157 1.283803,1.24207 22.34501,53.785662 22.34501,55.746435 0,3.207972 -5.200021,0.02629 -6.901444,-4.22273 z m 50.485584,32.379035 c -0.87083,-1.363231 1.58296,-5.220428 5.45287,-8.571549 3.86992,-3.351122 16.82073,-17.150249 28.7796,-30.664725 11.95886,-13.514476 23.35189,-24.571775 25.31784,-24.571775 1.96595,0 3.22008,0.95106 2.78694,2.113465 -0.43314,1.162405 -12.55258,14.276876 -26.93209,29.143268 -14.37951,14.86639 -26.83818,28.829828 -27.68592,31.029859 -1.73997,4.515513 -5.35186,5.227415 -7.71924,1.521457 z M 10.768756,115.1707 c -0.9631787,-1.50779 -1.0305471,-3.43868 -0.149715,-4.29089 1.65896,-1.60502 44.183636,-0.76359 45.925924,0.90874 2.256121,2.16553 -2.230265,3.07108 -22.5776,4.55716 -15.631314,1.14164 -21.922281,0.823 -23.198616,-1.17501 z m 65.755677,13.75075 c -9.921658,-4.35896 -14.329827,-8.51094 -11.718455,-11.03741 0.797281,-0.77136 9.13122,-1.48751 18.519866,-1.59144 13.718949,-0.15187 17.214206,-0.91208 17.803426,-3.87221 0.84725,-4.25636 -5.921858,-7.51873 -9.839125,-4.74197 -4.568784,3.2386 -29.823176,0.52228 -29.823176,-3.20773 0,-4.881147 17.150722,-21.944482 27.970148,-27.827637 10.410602,-5.660852 11.857273,-4.927079 14.429763,7.319011 1.04553,4.977147 3.02315,7.272013 6.71067,7.787175 6.69764,0.935688 6.78611,-3.628977 0.2772,-14.302088 -5.51471,-9.042858 -5.78864,-8.756221 12.03875,-12.597576 12.1454,-2.617029 32.22735,-2.856308 38.50621,-0.458804 3.86466,1.475676 3.68712,2.133257 -1.96232,7.268022 -5.91759,5.378485 -6.3602,5.448717 -9.35626,1.484634 -2.95065,-3.904003 -3.34162,-3.762869 -6.33194,2.285746 -2.3269,4.706691 -5.35632,6.755133 -11.22408,7.58954 -7.19753,1.023503 -7.62672,1.470533 -4.10918,4.279935 4.88488,3.901461 5.05899,10.252263 0.38397,14.006042 -5.44117,4.36894 -4.21463,7.10722 2.45776,5.487 6.71874,-1.63147 15.25531,4.12435 15.27026,10.29605 0.005,2.04554 2.1097,0.31195 4.79519,-3.94961 4.10516,-6.51441 5.72899,-7.39509 11.40963,-6.18798 6.22607,1.32301 6.56239,1.00616 5.60823,-5.28361 -0.86563,-5.706124 -0.0251,-7.013628 5.71009,-8.882731 6.54422,-2.132755 6.58214,-2.236235 1.40938,-3.84669 -2.92367,-0.910237 -5.31576,-2.969121 -5.31576,-4.575301 0,-3.431582 7.51936,-10.486091 11.17707,-10.486091 3.33962,0 6.96451,11.138692 5.84694,17.966708 -2.11746,12.936985 -32.26185,33.420205 -57.45159,39.038575 -17.03848,3.80029 -42.19148,2.87368 -53.192667,-1.95956 z m 36.802887,78.6942 c -5.91109,-1.82758 -12.96528,-5.66633 -15.675959,-8.53055 -2.710679,-2.86423 -10.386524,-17.54165 -17.057434,-32.61651 -7.533874,-17.02498 -10.440285,-25.68454 -7.671654,-22.85747 2.4515,2.50326 13.718364,14.58008 25.037476,26.8374 11.319111,12.25731 21.325291,22.28603 22.235951,22.28603 0.91066,0 4.69685,-11.0573 8.41376,-24.57178 3.7169,-13.51448 7.17347,-25.03194 7.68125,-25.59436 0.50778,-0.56242 9.79579,7.5169 20.64001,17.95405 10.84422,10.43715 20.21393,18.09742 20.82157,17.02281 0.60763,-1.0746 4.13371,-16.64315 7.83572,-34.59678 3.70201,-17.95362 7.45883,-31.32524 8.34848,-29.7147 0.88965,1.61054 2.9742,14.93403 4.63234,29.60776 3.54258,31.35022 2.19727,36.55682 -12.61535,48.82364 -18.29504,15.15074 -51.57347,22.45948 -72.62616,15.95046 z"
     inkscape:connector-curvature="0" />
</svg>
