<?xml version="1.0" encoding="UTF-8" standalone="no"?>
<!-- Created with Inkscape (http://www.inkscape.org/) -->

<svg
   xmlns:dc="http://purl.org/dc/elements/1.1/"
   xmlns:cc="http://creativecommons.org/ns#"
   xmlns:rdf="http://www.w3.org/1999/02/22-rdf-syntax-ns#"
   xmlns:svg="http://www.w3.org/2000/svg"
   xmlns="http://www.w3.org/2000/svg"
   xmlns:sodipodi="http://sodipodi.sourceforge.net/DTD/sodipodi-0.dtd"
   xmlns:inkscape="http://www.inkscape.org/namespaces/inkscape"
   version="1.1"
   id="svg4518"
   width="197"
   height="88"
   viewBox="0 0 197 88"
   sodipodi:docname="triplej-logo.svg"
   inkscape:version="0.92.4 (5da689c313, 2019-01-14)">
  <metadata
     id="metadata4524">
    <rdf:RDF>
      <cc:Work
         rdf:about="">
        <dc:format>image/svg+xml</dc:format>
        <dc:type
           rdf:resource="http://purl.org/dc/dcmitype/StillImage" />
        <dc:title></dc:title>
      </cc:Work>
    </rdf:RDF>
  </metadata>
  <defs
     id="defs4522" />
  <sodipodi:namedview
     pagecolor="#ffffff"
     bordercolor="#666666"
     borderopacity="1"
     objecttolerance="10"
     gridtolerance="10"
     guidetolerance="10"
     inkscape:pageopacity="0"
     inkscape:pageshadow="2"
     inkscape:window-width="1920"
     inkscape:window-height="1017"
     id="namedview4520"
     showgrid="false"
     inkscape:zoom="3.6548223"
     inkscape:cx="70.060079"
     inkscape:cy="13.826012"
     inkscape:window-x="-8"
     inkscape:window-y="-8"
     inkscape:window-maximized="1"
     inkscape:current-layer="svg4518" />
  <path
     style="fill:#e63228;fill-opacity:1"
     d="m 43.950926,86.510392 c -2.50199,-0.799556 -5.487814,-2.478985 -6.635163,-3.732065 -1.147349,-1.25308 -4.396303,-7.674364 -7.219898,-14.269521 -3.188862,-7.448323 -4.419058,-11.236829 -3.24718,-10 1.037646,1.095157 5.80657,6.378694 10.597609,11.741194 4.791038,5.3625 9.026352,9.75 9.411808,9.75 0.385456,0 1.988037,-4.8375 3.561291,-10.75 1.573254,-5.9125 3.036313,-10.951318 3.251242,-11.197374 0.214929,-0.246056 4.146261,3.288598 8.736294,7.854786 4.590032,4.566189 8.555946,7.917507 8.813142,7.447375 0.257195,-0.470133 1.749678,-7.281278 3.316627,-15.135878 1.56695,-7.854599 3.157096,-13.704599 3.533659,-13 0.376563,0.7046 1.258891,6.533546 1.96073,12.953214 1.499467,13.715526 0.930036,15.993382 -5.339696,21.360039 -7.743742,6.628356 -21.829497,9.825888 -30.740465,6.97823 z M 128,48.45034 c 0,-11.486313 1.05137,-14.94353 5.4137,-17.80184 3.59382,-2.354759 9.72859,-2.111013 13.07262,0.5194 C 156.06396,38.701675 150.55226,52 137.85212,52 H 133 v 3.5 c 0,3.066667 -0.30952,3.5 -2.5,3.5 H 128 Z m 16.42707,-3.020267 c 6.0809,-6.080898 -1.50142,-15.740404 -8.35369,-10.642208 -2.08548,1.551624 -2.63069,2.89081 -2.87564,7.063382 L 132.89548,47 h 4.98083 c 3.19268,0 5.54445,-0.563616 6.55076,-1.569927 z M 186,56.5 c 0,-1.375 0.45,-2.5 1,-2.5 0.55,0 1.9,-0.9 3,-2 1.74603,-1.746032 2,-3.333333 2,-12.5 V 29 h 2.58605 2.58606 l -0.33606,11.579161 -0.33605,11.57916 -3.73531,3.42084 C 188.28541,59.681323 186,59.992423 186,56.5 Z M 28.373371,52.082165 c -4.199539,-1.90702 -6.065384,-3.723485 -4.960069,-4.8288 0.337465,-0.337465 3.86497,-0.650776 7.838901,-0.696245 5.806818,-0.06644 7.286253,-0.39903 7.535655,-1.694069 0.358613,-1.862132 -2.506545,-3.289398 -4.164606,-2.07458 C 32.689423,44.205336 22,43.016962 22,41.385107 c 0,-2.135471 7.259384,-9.600575 11.838921,-12.174419 4.406494,-2.476588 5.018825,-2.155567 6.107684,3.202022 0.442543,2.177471 1.27961,3.181461 2.840423,3.406841 2.83491,0.409358 2.872358,-1.587655 0.117332,-6.257075 C 40.570148,25.606281 40.454204,25.731683 48,24.051114 53.140782,22.90618 61.640867,22.801497 64.298519,23.85039 c 1.635795,0.645599 1.560646,0.933287 -0.830592,3.179715 -2.504737,2.353054 -2.69208,2.38378 -3.960222,0.649518 -1.248922,-1.707977 -1.414406,-1.646232 -2.68012,1 C 55.842678,30.738771 54.560417,31.634952 52.076769,32 49.030274,32.447776 48.848608,32.643349 50.33748,33.872445 52.405102,35.57931 52.478794,38.357747 50.5,40 c -2.303081,1.911388 -1.783925,3.109365 1.040295,2.400531 2.843842,-0.713759 6.457115,1.804377 6.463443,4.504457 0.0021,0.894914 0.892974,0.136476 2.02966,-1.727929 1.737589,-2.850015 2.424909,-3.235308 4.82935,-2.707205 2.63531,0.578812 2.777664,0.440191 2.373795,-2.311544 C 66.87015,37.661915 67.22591,37.08989 69.653455,36.272169 72.423425,35.339102 72.439473,35.29383 70.25,34.589266 69.0125,34.191043 68,33.290294 68,32.5876 68,31.086304 71.182719,28 72.730916,28 c 1.413564,0 2.947869,4.873109 2.474833,7.860324 C 74.309492,41.520176 61.550284,50.481459 50.888222,52.93946 43.67635,54.602064 33.029842,54.196679 28.373371,52.082165 Z M 96,42.5 V 33 h -3 c -2.333333,0 -3,-0.444444 -3,-2 0,-1.555556 0.666667,-2 3,-2 2.761905,0 3,-0.277778 3,-3.5 0,-3.066667 0.309524,-3.5 2.5,-3.5 2.19048,0 2.5,0.433333 2.5,3.5 0,3.222222 0.2381,3.5 3,3.5 2.33333,0 3,0.444444 3,2 0,1.555556 -0.66667,2 -3,2 h -3 v 9.5 C 101,51.966667 100.991,52 98.5,52 96.008772,52 96,51.96667 96,42.5 Z m 11,1.4 c 0,-7.878431 0.093,-8.193004 3.4,-11.5 1.87,-1.87 4.345,-3.4 5.5,-3.4 2.99717,0 2.70084,3.405211 -0.42008,4.827194 C 112.2357,35.305359 111,38.680959 111,46.0651 111,51.333333 110.77534,52 109,52 c -1.83539,0 -2,-0.666667 -2,-8.1 z m 14,-3.4 V 29 h 2.5 2.5 V 40.5 52 H 123.5 121 Z M 154,37 c 0,-14.333333 0.0889,-15 2,-15 1.91111,0 2,0.666667 2,15 0,14.333333 -0.0889,15 -2,15 -1.91111,0 -2,-0.666667 -2,-15 z m 13.5,14.054643 c -5.04305,-2.064082 -8.13477,-8.601231 -6.46326,-13.665959 2.39355,-7.25254 10.21917,-10.376188 17.0917,-6.822266 C 181.17064,32.139601 184,37.15181 184,40.967881 184,42.860179 183.38075,43 175,43 c -5.11453,0 -9,0.416529 -9,0.964816 C 166,45.658491 169.72783,47 174.43426,47 178.63772,47 179,47.198371 179,49.5 c 0,2.324686 -0.3331,2.495555 -4.75,2.436614 -2.6125,-0.03486 -5.65,-0.431749 -6.75,-0.881971 z M 177.75949,36.75 c -0.22395,-0.6875 -1.61145,-1.837055 -3.08333,-2.554566 -2.20063,-1.072755 -3.15169,-1.072755 -5.35232,0 C 164.34131,36.624303 165.30899,38 172,38 c 4.48383,0 6.05555,-0.341116 5.75949,-1.25 z M 0.54097323,46.066296 C 0.13328889,45.406649 0.10477385,44.561893 0.47760648,44.18906 1.1797945,43.486872 19.179209,43.854994 19.916667,44.586625 c 0.954948,0.947405 -0.944004,1.343578 -9.556418,1.993729 -6.6162646,0.499462 -9.279041,0.36006 -9.81927577,-0.514058 z M 58.447855,36.915628 c -0.368598,-0.596405 0.670018,-2.283905 2.308036,-3.75 C 62.393909,31.699533 67.875599,25.6625 72.937425,19.75 77.999251,13.8375 82.821577,9 83.653706,9 84.485834,9 85.016667,9.4160824 84.833333,9.9246277 84.65,10.433173 79.520206,16.170673 73.433791,22.674628 67.347377,29.178582 62.074,35.2875 61.715176,36.25 c -0.736477,1.975509 -2.265282,2.286962 -3.267321,0.665628 z M 192,24.5 c 0,-2 0.5,-2.5 2.5,-2.5 2,0 2.5,0.5 2.5,2.5 0,2 -0.5,2.5 -2.5,2.5 -2,0 -2.5,-0.5 -2.5,-2.5 z M 37.078827,22.75 C 36.599408,21.5125 34.356795,16.251251 32.095242,11.058336 29.376996,4.8167723 28.319439,1.280561 28.974998,0.62500233 29.520416,0.07958438 30.225581,-0.10775265 30.542031,0.20869781 31.085426,0.75209246 40,23.739592 40,24.597418 40,26.000886 37.798988,24.608915 37.078827,22.75 Z"
     id="path4888"
     inkscape:connector-curvature="0" />
</svg>
